<svg width="512" height="512" viewBox="0 0 512 512" fill="none" xmlns="http://www.w3.org/2000/svg">
<path d="M182.067 78.2061L213.197 125.526L221.79 138.588L208.932 147.479C173.111 172.251 149.756 201.774 137.93 236.133C140.04 236.007 142.177 235.944 144.338 235.944C173.375 235.944 198.348 245.424 217.905 264.96C237.464 284.497 246.961 309.452 246.961 338.472C246.961 367.766 236.818 392.813 216.242 412.285C195.794 431.636 170.053 441 140.278 441C104.816 441 74.4669 429.196 50.4688 405.224L50.3428 405.099L50.2197 404.97C26.6379 380.343 16 346.077 16 304.672C16 260.047 28.6581 216.301 53.3398 173.629L53.4062 173.515L53.4746 173.401C79.4077 130.227 115.473 96.6562 161.316 72.8057L174.13 66.1396L182.067 78.2061ZM431.107 78.2061L462.237 125.526L470.829 138.588L457.971 147.479C422.15 172.251 398.795 201.774 386.969 236.133C389.08 236.007 391.217 235.944 393.378 235.944C422.415 235.944 447.388 245.424 466.945 264.96C486.504 284.497 496 309.452 496 338.472C496 367.766 485.857 392.813 465.281 412.285C444.833 431.636 419.092 441 389.317 441C353.855 441 323.506 429.196 299.508 405.224L299.383 405.099L299.26 404.97C275.678 380.343 265.039 346.077 265.039 304.672C265.039 260.047 277.698 216.301 302.38 173.629L302.445 173.515L302.514 173.401C328.447 130.227 364.513 96.6562 410.355 72.8057L423.169 66.1396L431.107 78.2061Z" fill="url(#paint0_linear_396_354)" stroke="white" stroke-width="32"/>
<defs>
<linearGradient id="paint0_linear_396_354" x1="256" y1="87" x2="256" y2="425" gradientUnits="userSpaceOnUse">
<stop stop-color="#2563EB"/>
<stop offset="1" stop-color="#1D4ED8"/>
</linearGradient>
</defs>
</svg>
