<svg width="512" height="512" viewBox="0 0 512 512" fill="none" xmlns="http://www.w3.org/2000/svg">
<g clip-path="url(#clip0_395_274)">
<rect width="512" height="512" rx="128" fill="url(#paint0_linear_395_274)"/>
<g filter="url(#filter0_d_395_274)">
<path d="M231.168 224C219.221 224 209.323 220.075 201.472 212.224C193.963 204.373 190.208 193.109 190.208 178.432C190.208 162.731 194.645 147.2 203.52 131.84C212.736 116.48 225.536 104.533 241.92 96L253.696 113.92C235.947 126.208 225.365 141.739 221.952 160.512C225.024 159.147 228.608 158.464 232.704 158.464C242.261 158.464 250.112 161.536 256.256 167.68C262.4 173.824 265.472 181.675 265.472 191.232C265.472 200.789 262.229 208.64 255.744 214.784C249.259 220.928 241.067 224 231.168 224ZM136.96 224C125.013 224 115.115 220.075 107.264 212.224C99.7547 204.373 96 193.109 96 178.432C96 162.731 100.437 147.2 109.312 131.84C118.528 116.48 131.328 104.533 147.712 96L159.488 113.92C141.739 126.208 131.157 141.739 127.744 160.512C130.816 159.147 134.4 158.464 138.496 158.464C148.053 158.464 155.904 161.536 162.048 167.68C168.192 173.824 171.264 181.675 171.264 191.232C171.264 200.789 168.021 208.64 161.536 214.784C155.051 220.928 146.859 224 136.96 224Z" fill="white"/>
</g>
</g>
<defs>
<filter id="filter0_d_395_274" x="90" y="92" width="185.472" height="144" filterUnits="userSpaceOnUse" color-interpolation-filters="sRGB">
<feFlood flood-opacity="0" result="BackgroundImageFix"/>
<feColorMatrix in="SourceAlpha" type="matrix" values="0 0 0 0 0 0 0 0 0 0 0 0 0 0 0 0 0 0 127 0" result="hardAlpha"/>
<feOffset dx="2" dy="4"/>
<feGaussianBlur stdDeviation="4"/>
<feComposite in2="hardAlpha" operator="out"/>
<feColorMatrix type="matrix" values="0 0 0 0 0 0 0 0 0 0 0 0 0 0 0 0 0 0 0.1 0"/>
<feBlend mode="normal" in2="BackgroundImageFix" result="effect1_dropShadow_395_274"/>
<feBlend mode="normal" in="SourceGraphic" in2="effect1_dropShadow_395_274" result="shape"/>
</filter>
<linearGradient id="paint0_linear_395_274" x1="256" y1="0" x2="256" y2="512" gradientUnits="userSpaceOnUse">
<stop stop-color="#2563EB"/>
<stop offset="1" stop-color="#1D4ED8"/>
</linearGradient>
<clipPath id="clip0_395_274">
<rect width="512" height="512" rx="128" fill="white"/>
</clipPath>
</defs>
</svg>
